<svg width="120" height="120" viewBox="0 0 120 120" fill="none" xmlns="http://www.w3.org/2000/svg">
<path d="M51.6 87.6L93.9 45.3L85.5 36.9L51.6 70.8L34.5 53.7L26.1 62.1L51.6 87.6ZM60 120C51.7 120 43.9 118.425 36.6 115.275C29.3 112.125 22.95 107.85 17.55 102.45C12.15 97.05 7.875 90.7 4.725 83.4C1.575 76.1 0 68.3 0 60C0 51.7 1.575 43.9 4.725 36.6C7.875 29.3 12.15 22.95 17.55 17.55C22.95 12.15 29.3 7.875 36.6 4.725C43.9 1.575 51.7 0 60 0C68.3 0 76.1 1.575 83.4 4.725C90.7 7.875 97.05 12.15 102.45 17.55C107.85 22.95 112.125 29.3 115.275 36.6C118.425 43.9 120 51.7 120 60C120 68.3 118.425 76.1 115.275 83.4C112.125 90.7 107.85 97.05 102.45 102.45C97.05 107.85 90.7 112.125 83.4 115.275C76.1 118.425 68.3 120 60 120Z" fill="#D98982"/>
</svg>
