<svg width="137" height="160" viewBox="0 0 137 160" fill="none" xmlns="http://www.w3.org/2000/svg">
<path d="M108.834 40.5591C108.834 18.7079 90.5228 0.925781 68.0214 0.925781C45.5199 0.925781 27.2086 18.7079 27.2086 40.5591C27.2086 62.4102 45.5199 80.1923 68.0214 80.1923C90.5228 80.1923 108.834 62.4102 108.834 40.5591ZM68.0214 74.9079C48.5129 74.9079 32.6503 59.5038 32.6503 40.5591C32.6503 21.6143 48.5129 6.21022 68.0214 6.21022C87.5299 6.21022 103.392 21.6143 103.392 40.5591C103.392 59.5038 87.5299 74.9079 68.0214 74.9079Z" fill="#915B57"/>
<path d="M68.0212 122.469C75.5347 122.469 81.6255 116.554 81.6255 109.258C81.6255 101.962 75.5347 96.0469 68.0212 96.0469C60.5078 96.0469 54.417 101.962 54.417 109.258C54.417 116.554 60.5078 122.469 68.0212 122.469Z" fill="#915B57"/>
<path d="M89.7879 135.68C89.7879 128.387 83.6932 122.469 76.1836 122.469H59.8585C52.349 122.469 46.2543 128.387 46.2543 135.68V159.46H89.7879V135.68Z" fill="#915B57"/>
<path d="M119.717 127.755C124.977 127.755 129.24 123.615 129.24 118.508C129.24 113.4 124.977 109.26 119.717 109.26C114.458 109.26 110.194 113.4 110.194 118.508C110.194 123.615 114.458 127.755 119.717 127.755Z" fill="#915B57"/>
<path d="M136.042 138.321C136.042 132.482 131.172 127.752 125.159 127.752H114.276C108.263 127.752 103.392 132.482 103.392 138.321V154.174H136.042V138.321Z" fill="#915B57"/>
<path d="M16.325 127.755C21.5844 127.755 25.848 123.615 25.848 118.508C25.848 113.4 21.5844 109.26 16.325 109.26C11.0656 109.26 6.802 113.4 6.802 118.508C6.802 123.615 11.0656 127.755 16.325 127.755Z" fill="#915B57"/>
<path d="M32.6502 138.321C32.6502 132.482 27.7799 127.752 21.7668 127.752H10.8834C4.87032 127.752 0 132.482 0 138.321V154.174H32.6502V138.321Z" fill="#915B57"/>
<path d="M42.4724 31.3389C42.4724 31.3389 40.3774 44.2593 47.2883 50.9706C50.5534 54.1412 55.2332 55.3566 59.2601 55.753C59.1785 55.0396 59.0696 53.7977 59.0424 52.1596C56.2399 48.6982 53.9544 44.867 52.1042 40.6923C54.7979 41.987 57.1922 43.5459 59.4505 45.2369C59.8859 42.1984 60.7021 38.8428 62.253 35.6721C55.2604 29.4101 42.4724 31.3389 42.4724 31.3389Z" fill="#915B57"/>
<path d="M93.5972 27.6131C93.5972 27.6131 78.4692 25.4729 70.4971 33.2146C65.0826 38.499 64.3752 47.0334 64.4841 51.8951C69.3272 46.4257 75.2586 42.0925 82.0608 38.8425C78.7413 45.4217 74.3063 51.1817 68.7014 55.8848C73.735 55.9905 82.4145 55.2771 87.829 50.0191C95.801 42.3038 93.5972 27.6131 93.5972 27.6131Z" fill="#915B57"/>
</svg>
