<svg width="186" height="160" viewBox="0 0 186 160" fill="none" xmlns="http://www.w3.org/2000/svg">
<g clip-path="url(#clip0_397_1594)">
<path d="M90.4281 117.759C94.8434 119.14 97.7117 122.543 96.8346 125.36C95.9576 128.177 91.6678 129.34 87.2511 127.958C85.4793 127.43 83.8593 126.485 82.5267 125.201L63.8926 119.113L66.9286 110.408L84.9762 117.334C86.8014 117.037 88.6708 117.183 90.4281 117.759Z" fill="#FFB6B6"/>
<path d="M50.5087 53.8867C46.0655 53.3591 41.9744 56.3696 41.1467 60.7774C38.1944 76.4993 31.924 110.497 32.7498 111.325C33.8248 112.403 73.9591 124.257 73.9591 124.257L78.6176 114.199L52.1003 101.267L57.9159 63.6636C58.6541 58.8899 55.2941 54.4549 50.5087 53.8867Z" fill="#F3E6DE"/>
<path d="M98.8605 134.113C94.5523 135.8 90.1919 134.939 89.1214 132.19C88.0509 129.442 90.6756 125.847 94.9856 124.16C96.698 123.462 98.5521 123.186 100.393 123.354L118.737 116.438L121.791 125.136L103.383 131.031C102.143 132.406 100.592 133.462 98.8605 134.113Z" fill="#A0616A"/>
<path d="M125.314 59.4519C129.712 58.6262 133.996 61.3542 135.117 65.6963C139.117 81.1838 147.652 114.682 146.883 115.564C145.883 116.712 106.634 131.243 106.634 131.243L101.312 121.521L126.902 106.832L118.579 69.7057C117.523 64.9925 120.578 60.3412 125.314 59.4519Z" fill="#F3E6DE"/>
<path d="M47.3613 56.1451L49.5469 42.4514L34.794 36.4261L32.6084 57.2406L47.3613 56.1451Z" fill="#FFB6B6"/>
<path d="M133.524 58.3004L131.339 44.6067L146.092 38.5814L148.277 59.3959L133.524 58.3004Z" fill="#A0616A"/>
<path d="M43.633 46.8534C51.9418 46.8534 58.6774 40.1012 58.6774 31.7719C58.6774 23.4426 51.9418 16.6904 43.633 16.6904C35.3242 16.6904 28.5886 23.4426 28.5886 31.7719C28.5886 40.1012 35.3242 46.8534 43.633 46.8534Z" fill="#FFB6B6"/>
<path d="M42.4324 11.4959C42.8677 11.7506 43.4508 11.3652 43.5904 10.8797C43.73 10.3941 43.5674 9.8786 43.4061 9.39984L42.5944 6.9897C42.0187 5.28038 41.4077 3.51132 40.1609 2.2103C38.2791 0.246627 35.2884 -0.252924 32.5961 0.108983C29.1388 0.573741 25.7275 2.45048 24.12 5.55392C22.5124 8.65735 23.1968 12.9878 26.1016 14.924C21.9616 19.6807 20.5185 24.982 20.7464 31.2906C20.9742 37.5992 27.8321 43.4051 32.3044 47.8493C33.3032 47.2424 34.2111 44.3981 33.6619 43.3648C33.1127 42.3316 33.8996 41.1345 33.2194 40.1828C32.5392 39.231 31.9702 40.7465 32.6578 39.8002C33.0917 39.203 31.3982 37.8292 32.0432 37.4718C35.1629 35.7431 36.2005 31.8449 38.1599 28.8597C40.5233 25.2591 44.5682 22.8207 48.8488 22.4162C51.2068 22.1933 53.6975 22.597 55.6303 23.9693C57.563 25.3416 58.8143 27.794 58.3661 30.1254C59.5269 28.9439 60.1047 27.2124 59.8868 25.5686C59.6688 23.9248 58.6599 22.4047 57.2316 21.5681C58.1001 18.6891 57.3561 15.3773 55.3404 13.1494C53.3246 10.9215 45.1476 11.301 42.2048 11.8873" fill="#2F2E41"/>
<path d="M41.9753 22.5035C38.0776 22.9253 35.2634 26.3099 32.887 29.4356C31.5173 31.2372 30.0825 33.2267 30.1169 35.4916C30.1517 37.7815 31.6789 39.7456 32.4088 41.9157C33.6019 45.4628 32.4391 49.6831 29.5991 52.1136C32.4053 52.6474 35.4389 50.5381 35.9234 47.7162C36.4873 44.4313 34.0033 41.2607 34.2975 37.9405C34.5567 35.0154 36.8561 32.7641 38.811 30.577C40.7659 28.3899 42.6019 25.4876 41.7025 22.6928" fill="#2F2E41"/>
<path d="M49.0657 53.8489L32.0332 49.179L14.4744 56.3635L6.94922 115.995L49.9502 117.432V107.813C49.9502 107.813 57.4754 98.3928 56.0421 84.7423L54.6087 71.0917L49.0657 53.8489Z" fill="#F3E6DE"/>
<path d="M56.9379 78.0965L23.2537 76.3004L14.116 102.344C14.116 102.344 2.82824 117.971 1.03653 129.466C-0.755183 140.961 0.319842 157.126 0.319842 157.126H54.2461L49.9502 107.813C49.9502 107.813 59.9795 85.9995 58.817 82.2276C57.6545 78.4558 56.9379 78.0965 56.9379 78.0965Z" fill="#D98982"/>
<path d="M31.1371 49.3585H22.8953V79.8927H31.1371V49.3585Z" fill="#D98982"/>
<path d="M56.5795 56.1838H48.3376V81.3296H56.5795V56.1838Z" fill="#D98982"/>
<path d="M131.103 56.7227L148.136 52.0527L165.695 59.2372L173.22 118.869L130.219 120.306V110.687C130.219 110.687 125.82 100.854 130.04 87.7957C134.161 75.0432 125.56 73.9655 125.56 73.9655L131.103 56.7227Z" fill="#F3E6DE"/>
<path d="M123.231 80.9704L156.915 79.1743L166.053 105.218C166.053 105.218 171.607 123 173.399 134.495C175.191 145.99 179.849 160 179.849 160H125.923L124.306 112.582L123.231 80.9704Z" fill="#D98982"/>
<path d="M157.274 52.2323H149.032V82.7665H157.274V52.2323Z" fill="#D98982"/>
<path d="M131.831 59.0576H123.589V84.2034H131.831V59.0576Z" fill="#D98982"/>
<path d="M136.856 48.9493C147.263 48.9493 155.699 40.4924 155.699 30.0603C155.699 19.6282 147.263 11.1713 136.856 11.1713C126.45 11.1713 118.014 19.6282 118.014 30.0603C118.014 40.4924 126.45 48.9493 136.856 48.9493Z" fill="#A0616A"/>
<path d="M155.39 40.3071C155.39 40.3071 146.274 29.3406 142.627 30.2545C138.981 31.1684 141.26 32.5392 141.26 32.5392L132.144 22.4866C132.144 22.4866 124.851 19.745 118.014 28.4268C118.014 28.4268 113.911 21.1158 118.014 17.0034C122.116 12.891 123.483 13.3479 124.395 11.0632C125.307 8.77856 131.688 6.95082 131.688 6.95082C131.688 6.95082 131.322 3.66234 133.328 5.30658C135.334 6.95082 140.345 6.95082 140.345 6.95082C140.345 6.95082 140.374 5.12309 142.412 6.95082C144.451 8.77856 146.73 7.86469 146.73 7.86469C146.73 7.86469 146.73 11.0273 148.325 11.0452C149.92 11.0632 152.655 8.77856 153.111 10.6063C153.567 12.434 156.758 13.3479 157.213 18.8311C157.669 24.3143 155.39 40.3071 155.39 40.3071Z" fill="#2F2E41"/>
<path d="M85.5069 68.5L100.095 96.1469L98.0957 97.2073L83.5071 69.5604C83.2954 69.1591 83.4485 68.661 83.8488 68.4487L84.3979 68.1575C84.7982 67.9452 85.2951 68.0987 85.5069 68.5Z" fill="#3F3D56"/>
<path d="M109.811 106.595C106.1 105.636 102.217 107.335 100.355 110.693C98.0224 114.898 95.3581 118.348 96.2503 110.126C97.2325 101.075 91.9354 93.7639 96.0983 91.5564C100.261 89.349 104.56 96.0578 111.325 102.132C117.596 107.762 113.98 107.673 109.811 106.595Z" fill="#3F3D56"/>
<path d="M88.3283 74.093C92.5357 72.1672 96.9373 72.7824 98.1594 75.4668C99.3816 78.1512 96.9615 81.8875 92.7524 83.8135C91.0816 84.6059 89.2458 84.9857 87.3985 84.9211L69.469 92.8551L65.9343 84.3412L83.9849 77.4236C85.1466 75.9816 86.636 74.8395 88.3283 74.093Z" fill="#FFB6B6"/>
<path d="M16.0764 53.2359C12.4163 55.8157 11.374 60.7947 13.6922 64.631C21.9608 78.3142 39.926 107.827 41.0921 107.891C42.6101 107.975 80.3901 89.9504 80.3901 89.9504L77.1627 79.3433L48.8057 87.4544L28.1015 55.5608C25.4732 51.5119 20.0183 50.4573 16.0764 53.2359Z" fill="#F3E6DE"/>
<path d="M90.1213 116.552L138.585 90.8527L144.534 102.127C149.666 111.853 145.956 123.925 136.254 129.07L122.947 136.126C113.245 141.271 101.202 137.552 96.0706 127.826L90.1213 116.552Z" fill="#9F1B13"/>
<path d="M131.181 133.827C126.974 135.753 122.572 135.139 121.35 132.454C120.127 129.77 122.547 126.033 126.756 124.107C128.426 123.314 130.262 122.934 132.109 122.998L150.038 115.062L153.574 123.575L135.524 130.495C134.363 131.938 132.873 133.08 131.181 133.827Z" fill="#A0616A"/>
<path d="M167.645 57.8381C172.088 57.3106 176.179 60.321 177.006 64.7288C179.959 80.4507 186.229 114.449 185.403 115.276C184.328 116.354 144.194 128.209 144.194 128.209L139.536 118.15L166.053 105.218L160.237 67.615C159.499 62.8413 162.859 58.4063 167.645 57.8381Z" fill="#F3E6DE"/>
</g>
<defs>
<clipPath id="clip0_397_1594">
<rect width="185.478" height="160" fill="white"/>
</clipPath>
</defs>
</svg>
