<svg width="25" height="25" viewBox="0 0 25 25" fill="none" xmlns="http://www.w3.org/2000/svg">
<path d="M12.5 0C10.0277 0 7.61099 0.733112 5.55538 2.10663C3.49976 3.48015 1.89761 5.43238 0.951511 7.71646C0.00541586 10.0005 -0.242126 12.5139 0.24019 14.9386C0.722505 17.3634 1.91301 19.5907 3.66117 21.3388C5.40933 23.087 7.63661 24.2775 10.0614 24.7598C12.4861 25.2421 14.9995 24.9946 17.2835 24.0485C19.5676 23.1024 21.5199 21.5002 22.8934 19.4446C24.2669 17.389 25 14.9723 25 12.5C24.9963 9.18594 23.6781 6.00869 21.3347 3.66529C18.9913 1.3219 15.8141 0.00373855 12.5 0ZM12.5 24C10.2255 24 8.00211 23.3255 6.11095 22.0619C4.21978 20.7983 2.7458 19.0022 1.87539 16.9009C1.00498 14.7995 0.777245 12.4872 1.22097 10.2565C1.6647 8.02568 2.75997 5.97657 4.36828 4.36827C5.97658 2.75997 8.02568 1.6647 10.2565 1.22097C12.4872 0.777239 14.7995 1.00498 16.9009 1.87538C19.0022 2.74579 20.7983 4.21978 22.0619 6.11094C23.3255 8.0021 24 10.2255 24 12.5C23.9965 15.5489 22.7838 18.472 20.6279 20.6279C18.472 22.7838 15.5489 23.9965 12.5 24ZM8.00037 12.4994C8.00041 13.4438 8.29759 14.3643 8.84981 15.1305C9.40203 15.8967 10.1813 16.4697 11.0773 16.7684C11.9732 17.0671 12.9405 17.0763 13.842 16.7948C14.7435 16.5133 15.5336 15.9553 16.1003 15.1998C16.1801 15.0939 16.2985 15.024 16.4298 15.0054C16.561 14.9869 16.6942 15.0211 16.8002 15.1008C16.9062 15.1804 16.9762 15.2988 16.9949 15.43C17.0136 15.5612 16.9794 15.6945 16.8999 15.8005C16.2071 16.7237 15.2415 17.4056 14.1397 17.7495C13.0379 18.0934 11.8558 18.082 10.7609 17.7168C9.66593 17.3517 8.71362 16.6513 8.0388 15.7149C7.36398 14.7785 7.00086 13.6536 7.00086 12.4994C7.00086 11.3451 7.36398 10.2202 8.0388 9.28377C8.71362 8.34737 9.66593 7.64701 10.7609 7.28186C11.8558 6.91672 13.0379 6.9053 14.1397 7.24923C15.2415 7.59315 16.2071 8.27499 16.8999 9.19818C16.9394 9.25068 16.9681 9.31043 16.9844 9.37403C17.0008 9.43763 17.0044 9.50383 16.9952 9.56885C16.986 9.63386 16.964 9.69643 16.9306 9.75296C16.8972 9.8095 16.853 9.8589 16.8005 9.89834C16.748 9.93779 16.6883 9.96651 16.6247 9.98287C16.5611 9.99922 16.4949 10.0029 16.4298 9.99366C16.3648 9.98442 16.3023 9.96248 16.2457 9.92907C16.1892 9.89566 16.1398 9.85145 16.1003 9.79895C15.5336 9.04348 14.7435 8.48547 13.842 8.20396C12.9405 7.92244 11.9732 7.93169 11.0773 8.2304C10.1813 8.5291 9.40203 9.10211 8.84981 9.86829C8.29759 10.6345 8.00041 11.5549 8.00037 12.4994Z" fill="#F3E6DE"/>
</svg>
