<svg width="648" height="48" viewBox="0 0 648 48" fill="none" xmlns="http://www.w3.org/2000/svg">
<rect x="0.5" y="22.5" width="647" height="3" fill="#58453F" stroke="#58453F"/>
<circle cx="156" cy="24" r="23.5" fill="#D98982" stroke="#58453F"/>
<circle cx="268" cy="24" r="23.5" fill="white" stroke="#58453F"/>
<circle cx="381" cy="24" r="23.5" fill="white" stroke="#58453F"/>
<circle cx="492" cy="24" r="23.5" fill="white" stroke="#58453F"/>
<path d="M154.32 31V17.8L155.18 18.74H151.16V17H156.3V31H154.32Z" fill="white"/>
<path d="M263.74 31V29.64L269.44 24.14C269.947 23.66 270.32 23.24 270.56 22.88C270.813 22.5067 270.98 22.1667 271.06 21.86C271.153 21.54 271.2 21.2333 271.2 20.94C271.2 20.22 270.947 19.6533 270.44 19.24C269.933 18.8267 269.193 18.62 268.22 18.62C267.473 18.62 266.8 18.7467 266.2 19C265.6 19.24 265.08 19.62 264.64 20.14L263.28 18.96C263.813 18.28 264.527 17.76 265.42 17.4C266.327 17.0267 267.32 16.84 268.4 16.84C269.373 16.84 270.22 17 270.94 17.32C271.66 17.6267 272.213 18.0733 272.6 18.66C273 19.2467 273.2 19.94 273.2 20.74C273.2 21.1933 273.14 21.64 273.02 22.08C272.9 22.52 272.673 22.9867 272.34 23.48C272.007 23.9733 271.527 24.5267 270.9 25.14L265.82 30.04L265.34 29.26H273.8V31H263.74Z" fill="#58453F"/>
<path d="M381.24 31.16C380.253 31.16 379.293 31.0067 378.36 30.7C377.44 30.3933 376.687 29.98 376.1 29.46L377.02 27.88C377.487 28.32 378.093 28.68 378.84 28.96C379.587 29.24 380.387 29.38 381.24 29.38C382.28 29.38 383.087 29.16 383.66 28.72C384.247 28.2667 384.54 27.66 384.54 26.9C384.54 26.1667 384.26 25.58 383.7 25.14C383.153 24.6867 382.28 24.46 381.08 24.46H379.96V23.06L384.12 17.94L384.4 18.74H376.74V17H385.98V18.36L381.84 23.46L380.8 22.84H381.46C383.153 22.84 384.42 23.22 385.26 23.98C386.113 24.74 386.54 25.7067 386.54 26.88C386.54 27.6667 386.347 28.3867 385.96 29.04C385.573 29.6933 384.987 30.2133 384.2 30.6C383.427 30.9733 382.44 31.16 381.24 31.16Z" fill="#58453F"/>
<path d="M487.76 27.56V26.16L494.92 17H497.08L489.98 26.16L488.96 25.84H500.14V27.56H487.76ZM495.54 31V27.56L495.6 25.84V22.8H497.48V31H495.54Z" fill="#58453F"/>
</svg>
