<svg width="245" height="160" viewBox="0 0 245 160" fill="none" xmlns="http://www.w3.org/2000/svg">
<g clip-path="url(#clip0_397_1626)">
<path d="M225.604 77.26H27.7467C25.0946 77.26 22.937 75.0997 22.937 72.4439V4.81578C22.937 2.16035 25.0946 0 27.7467 0H225.604C228.256 0 230.413 2.16035 230.413 4.81578V72.4439C230.413 75.0997 228.256 77.26 225.604 77.26ZM27.7467 0.574149C25.4109 0.574149 23.5104 2.477 23.5104 4.81578V72.4439C23.5104 74.7829 25.4109 76.6859 27.7467 76.6859H225.604C227.94 76.6859 229.84 74.7829 229.84 72.4439V4.81578C229.84 2.477 227.94 0.574149 225.604 0.574149H27.7467Z" fill="#3F3D56"/>
<path d="M244.478 158.051H0.477783V158.534H244.478V158.051Z" fill="#F3E6DE"/>
<path d="M244.478 133.362H0.477783V133.846H244.478V133.362Z" fill="#F3E6DE"/>
<path d="M111.675 79.747C111.851 81.9517 113.129 83.6483 114.53 83.5364C115.931 83.4245 116.925 81.5467 116.749 79.3413C116.691 78.4593 116.423 77.6041 115.967 76.8472L115.107 67.5151L110.742 68.0127L112.053 77.1596C111.723 77.9794 111.593 78.8667 111.675 79.747Z" fill="#FFB6B6"/>
<path d="M106.461 36.2096C106.461 36.2096 110.541 34.0468 112.61 37.2788C114.679 40.5108 116.107 75.4658 116.107 75.4658L110.373 76.0788L109.286 51.4471L106.461 36.2096Z" fill="#F3E6DE"/>
<path d="M97.9918 131.539L101.314 131.538L102.894 118.708L97.9911 118.708L97.9918 131.539Z" fill="#FFB6B6"/>
<path d="M109.374 131.463C109.478 131.638 109.532 132.201 109.532 132.404C109.532 133.027 109.027 133.533 108.405 133.533H98.1161C97.6913 133.533 97.3468 133.188 97.3468 132.762V132.333C97.3468 132.333 96.8379 131.044 97.8857 129.456C97.8857 129.456 99.1881 130.7 101.134 128.751L101.708 127.71L105.862 130.752L108.165 131.036C108.668 131.098 109.115 131.026 109.374 131.463Z" fill="#58453F"/>
<path d="M117.217 130.988L120.436 130.164L118.795 117.341L114.045 118.557L117.217 130.988Z" fill="#FFB6B6"/>
<path d="M128.227 128.094C128.37 128.237 128.562 128.769 128.612 128.966C128.766 129.57 128.402 130.185 127.799 130.339L117.83 132.889C117.419 132.994 117 132.745 116.895 132.333L116.789 131.918C116.789 131.918 115.977 130.795 116.599 128.996C116.599 128.996 118.169 129.878 119.573 127.508L119.871 126.358L124.648 128.275L126.949 127.98C127.453 127.915 127.868 127.735 128.227 128.094Z" fill="#58453F"/>
<path d="M95.2433 33.4513L95.0858 32.3068L96.958 27.7285L102.102 27.1562L103.213 33.7106L95.2433 33.4513Z" fill="#FFB6B6"/>
<path opacity="0.1" d="M95.2433 33.4513L95.0858 32.3068L96.958 27.7285L102.102 27.1562L103.213 33.7106L95.2433 33.4513Z" fill="black"/>
<path d="M89.2419 65.7853L86.9557 72.0804L88.6704 75.5141L97.2437 125.303H102.943L101.816 81.2369L114.962 125.303H120.603L116.067 95.5439L112.676 68.0744L110.619 66.8022L100.673 61.207L89.2419 65.7853Z" fill="#58453F"/>
<path d="M103.817 70.0774L100.387 70.6497L95.8148 59.7764H106.103L103.817 70.0774Z" fill="#F3E6DE"/>
<path d="M110.675 67.2159L103.817 70.0773L101.53 64.9268L100.387 70.6496L88.3846 66.781L90.0993 59.7763L88.3846 36.885L94.4374 32.8447L95.2433 32.3068L102.674 32.879L103.325 33.2339L107.818 35.7405L108.961 54.6257L110.675 67.2159Z" fill="#58453F"/>
<path d="M103.325 33.2339L100.101 46.8999L94.4374 32.8447L95.2433 32.3068L102.673 32.879L103.325 33.2339Z" fill="#F3E6DE"/>
<path d="M97.8154 32.3068L96.6722 34.278L97.8154 34.935L97.2438 46.9355L99.53 50.0475L101.816 45.448L100.102 34.935L100.673 32.3068H97.8154Z" fill="#58453F"/>
<path d="M99.53 31.1623C102.529 31.1623 104.96 28.7282 104.96 25.7256C104.96 22.723 102.529 20.2889 99.53 20.2889C96.5312 20.2889 94.1002 22.723 94.1002 25.7256C94.1002 28.7282 96.5312 31.1623 99.53 31.1623Z" fill="#FFB6B6"/>
<path d="M96.06 26.2025L97.2332 26.7151L97.7452 23.6391C97.7452 23.6391 99.7933 22.6138 101.329 23.1264C102.865 23.6391 105.425 23.1264 105.425 23.1264C105.425 23.1264 105.426 17.9998 101.841 17.9998C98.2572 17.9998 94.6731 18.5124 94.6731 20.0504C94.6731 21.5884 93.1371 23.1264 93.1371 23.1264C93.1371 23.1264 91.089 26.2025 93.1371 28.2531C95.1851 30.3038 96.2092 30.3038 96.2092 30.3038L96.06 26.2025Z" fill="#58453F"/>
<path d="M85.5242 79.5861C85.4646 81.797 86.5557 83.6199 87.9609 83.6576C89.3661 83.6953 90.5532 81.9337 90.6124 79.7221C90.6482 78.8389 90.4723 77.96 90.0993 77.159L90.2334 67.7882L85.8402 67.8189L86.1744 77.0536C85.7588 77.8336 85.5358 78.7021 85.5242 79.5861Z" fill="#FFB6B6"/>
<path d="M90.9594 35.7298C90.9594 35.7298 87.2443 34.5852 85.5297 38.0189C83.815 41.4526 86.1012 76.3618 86.1012 76.3618H91.8685L90.3379 51.7536L90.9594 35.7298Z" fill="#F3E6DE"/>
<path d="M233.475 100.765L219.62 96.519C219.314 96.4251 218.992 96.3908 218.673 96.418L148.457 102.401C147.456 102.487 147.205 103.839 148.108 104.279L150.357 105.376H150.297V157.897H152.416V106.381L159.465 109.82C160.005 110.083 160.607 110.19 161.203 110.13L161.953 110.054V157.897H164.073V109.839L218.381 104.347V157.897H220.501V104.132L229.508 103.221V157.897H231.627V103.007L233.271 102.841C234.424 102.724 234.583 101.105 233.475 100.765Z" fill="#3F3D56"/>
<path d="M168.841 102.193C170.166 102.193 189.77 99.8062 189.77 99.8062L192.684 103.785L172.285 107.764L168.841 102.193Z" fill="white"/>
<path d="M190.357 155.857L186.951 155.851L185.353 142.694L190.38 142.703L190.357 155.857Z" fill="#A0616A"/>
<path d="M178.688 155.76C178.582 155.939 178.525 156.516 178.524 156.724C178.523 157.363 179.04 157.882 179.678 157.883L190.226 157.901C190.662 157.902 191.015 157.549 191.016 157.113L191.017 156.673C191.017 156.673 191.541 155.353 190.469 153.722C190.469 153.722 189.132 154.995 187.14 152.994L186.554 151.926L182.29 155.037L179.929 155.324C179.412 155.387 178.954 155.313 178.688 155.76Z" fill="#58453F"/>
<path d="M208.637 149.739L205.95 151.769L196.853 142.357L200.819 139.361L208.637 149.739Z" fill="#A0616A"/>
<path d="M199.385 156.632C199.407 156.836 199.706 157.325 199.83 157.489C200.21 157.994 200.926 158.094 201.43 157.714L209.752 151.428C210.095 151.168 210.164 150.679 209.904 150.335L209.643 149.988C209.643 149.988 209.269 148.635 207.453 147.99C207.453 147.99 207.158 149.792 204.397 149.405L203.298 148.913L201.792 153.911L200.103 155.548C199.733 155.906 199.328 156.12 199.385 156.632Z" fill="#58453F"/>
<path d="M201.519 81.7416C201.519 84.8865 198.973 87.4359 195.832 87.4359C192.691 87.4359 190.145 84.8865 190.145 81.7416C190.145 78.5968 192.691 76.0474 195.832 76.0474C198.973 76.0474 201.519 78.5968 201.519 81.7416Z" fill="#A0616A"/>
<path d="M200.983 114.573C200.983 114.573 180.044 113.387 178.859 115.76C177.674 118.134 185.266 150.735 185.266 150.735L192.04 149.314L188.736 126.441C188.736 126.441 206.209 131.074 208.579 125.536C210.95 119.998 210.267 117.936 210.267 117.936L200.983 114.573Z" fill="#58453F"/>
<path d="M206.348 110.589C206.348 110.589 185.841 114.991 185.325 117.594C184.809 120.197 200.745 149.626 200.745 149.626L206.902 146.461L197.672 125.278C197.672 125.278 215.747 125.118 216.57 119.149C217.393 113.181 216.19 111.373 216.19 111.373L206.348 110.589Z" fill="#58453F"/>
<path d="M208.687 88.2675H198.835L192.094 99.3436C192.094 99.3436 190.514 106.501 192.094 107.274C193.674 108.046 193.674 116.353 193.674 116.353L210.267 117.936C210.267 117.936 212.638 93.0144 211.848 90.6409C211.057 88.2675 208.687 88.2675 208.687 88.2675Z" fill="#9F1B13"/>
<path d="M193.082 95.5857L192.094 107.274L180.985 102.553L178.333 101.218C177.814 100.54 177.14 99.9962 176.368 99.6324C174.448 98.6954 172.409 98.9275 171.814 100.151C171.218 101.374 172.292 103.125 174.211 104.061C174.973 104.446 175.817 104.642 176.67 104.634L184.428 109.046L184.437 109.029L184.472 109.09L196.637 114.178L199.436 98.8339L193.082 95.5857Z" fill="#A0616A"/>
<path d="M191.896 82.5316C191.896 82.5316 185.97 83.3228 188.341 78.1803C188.341 78.1803 187.979 75.3925 189.74 75.2041C191.501 75.0157 193.872 71.851 193.872 71.851C193.872 71.851 199.306 69.082 202.12 71.851C204.934 74.6201 213.23 90.8387 213.23 90.8387L207.699 96.7724C207.699 96.7724 204.374 88.0199 200.506 89.0337C196.637 90.0476 193.082 93.0705 193.082 93.0705C193.082 93.0705 189.156 91.1033 190.921 89.3887C192.687 87.6741 191.896 82.5316 191.896 82.5316Z" fill="#58453F"/>
<path d="M199.798 91.2343C199.798 91.2343 197.032 87.6741 195.057 90.4431C193.082 93.2122 191.501 96.7724 191.501 96.7724L199.403 99.5414L199.798 91.2343Z" fill="#9F1B13"/>
<path d="M229.799 157.11L220.619 127.894L220.62 127.894H220.641L220.604 127.846L220.603 127.845L219.949 125.764L219.95 125.764C220.946 124.905 221.624 123.677 221.759 122.263L217.563 99.1537C217.851 96.1191 215.528 93.4666 212.484 93.3578L203.016 93.3339C200.324 93.2384 197.993 95.1854 197.601 97.8539L197.392 99.2704L194.491 119.029C194.385 119.74 194.427 120.44 194.594 121.096L192.507 121.369L191.873 121.454L189.37 121.78L189.362 121.783L189.049 121.822H188.71V130.311H188.732V157.441C188.732 157.616 188.875 157.759 189.049 157.759C189.227 157.759 189.37 157.616 189.37 157.441V130.311H193.084L196.79 157.409C196.814 157.568 196.949 157.685 197.108 157.685C197.122 157.685 197.137 157.685 197.151 157.682C197.326 157.659 197.447 157.497 197.424 157.322L193.731 130.311H211.552C213.321 130.311 214.961 129.748 216.296 128.786L223.362 157.36C223.399 157.504 223.528 157.6 223.671 157.6C223.697 157.6 223.723 157.597 223.75 157.59C223.921 157.547 224.024 157.373 223.98 157.202L216.846 128.352C216.941 128.273 217.036 128.188 217.126 128.101L219.962 127.934L229.19 157.302C229.233 157.438 229.359 157.525 229.494 157.525C229.526 157.525 229.558 157.521 229.59 157.511C229.758 157.458 229.852 157.278 229.799 157.11ZM219.343 126.218C219.367 126.204 219.388 126.189 219.409 126.175L219.478 126.392L219.343 126.218Z" fill="#F3E6DE"/>
<path d="M49.6672 107.588L55.8456 103.654L58.3574 105.171L49.6672 115.17V107.588Z" fill="#FFB6B6"/>
<path d="M41.2186 92.3612C41.2186 92.3612 37.1149 93.328 39.046 98.8871C40.9772 104.446 47.2534 116.048 49.1845 115.323C51.1157 114.598 51.357 107.347 51.357 107.347C51.357 107.347 51.1157 107.588 50.1501 106.622C49.1845 105.655 49.1845 106.096 49.1845 105.03C49.1845 103.963 48.3948 103.172 48.3948 103.172L47.4948 101.304C47.4948 101.304 47.4948 92.6029 43.8739 92.1195C40.253 91.6361 41.2186 92.3612 41.2186 92.3612Z" fill="#F3E6DE"/>
<path d="M60.391 104.911C61.9936 103.307 62.4903 101.203 61.5005 100.211C60.5107 99.2204 58.4091 99.7177 56.8065 101.322C55.2039 102.927 54.7072 105.031 55.697 106.022C56.6869 107.013 58.7884 106.516 60.391 104.911Z" fill="#FFB6B6"/>
<path d="M25.2346 124.386L29.4504 131.373L54.0184 129.918L47.4766 121.475L25.2346 124.386Z" fill="#F3E6DE"/>
<path d="M32.5756 157.064C32.4325 157.064 32.3078 156.958 32.2879 156.812L24.9466 103.128C24.9248 102.968 25.0361 102.821 25.1952 102.8C25.3542 102.777 25.5008 102.889 25.5227 103.049L32.864 156.733C32.8858 156.893 32.7745 157.04 32.6154 157.061C32.602 157.063 32.5887 157.064 32.5756 157.064Z" fill="#F3E6DE"/>
<path d="M25.2346 157.132C25.074 157.132 24.9438 157.002 24.9438 156.841V103.098C24.9438 102.938 25.074 102.807 25.2346 102.807C25.3952 102.807 25.5253 102.938 25.5253 103.098V156.841C25.5253 157.002 25.3952 157.132 25.2346 157.132Z" fill="#F3E6DE"/>
<path d="M62.0866 156.919C61.963 156.919 61.8484 156.839 61.8093 156.715L44.4373 101.429C44.3891 101.275 44.4742 101.112 44.6274 101.064C44.7805 101.016 44.9438 101.101 44.992 101.254L62.364 156.54C62.4122 156.693 62.3271 156.857 62.1739 156.905C62.1449 156.914 62.1155 156.919 62.0866 156.919Z" fill="#F3E6DE"/>
<path d="M56.7804 156.987C56.6505 156.987 56.5323 156.899 56.4988 156.767L44.4329 107.974C44.3933 107.818 44.4874 107.659 44.643 107.62C44.7991 107.58 44.9568 107.674 44.9965 107.83L57.0624 156.624C57.1019 156.78 57.0079 156.938 56.8523 156.978C56.8282 156.984 56.8041 156.987 56.7804 156.987Z" fill="#F3E6DE"/>
<path d="M25.2346 103.955L45.3687 103.645L49.0757 124.823H25.5254L25.2346 103.955Z" fill="#F3E6DE"/>
<path d="M56.1757 135.096L51.1016 144.041L56.9931 145.34L59.4493 138.978L56.1757 135.096Z" fill="#FFB6B6"/>
<path d="M52.9239 142.352C52.9239 142.352 52.7267 140.894 51.5676 141.356C50.4084 141.819 47.063 143.54 47.063 143.54C47.063 143.54 55.7886 157.736 57.4446 157.074C59.1005 156.413 57.1182 152.4 57.1182 152.4L57.5557 145.307L52.9239 142.352Z" fill="#58453F"/>
<path d="M33.7352 117.74C33.7352 117.74 31.9248 126.078 37.4768 128.979C43.0288 131.879 61.9782 124.749 61.9782 124.749L53.288 137.786L59.3228 140.218C59.3228 140.218 73.0822 122.09 72.1167 119.19C71.1511 116.289 64.6335 116.048 64.6335 116.048L49.9085 116.773L46.0462 115.564L33.7352 117.74Z" fill="#58453F"/>
<path d="M48.6689 139.066L40.6919 145.549L45.7075 148.905L50.3074 143.874L48.6689 139.066Z" fill="#FFB6B6"/>
<path d="M43.0032 144.64C43.0032 144.64 43.3497 143.21 42.1017 143.218C40.8538 143.227 37.1125 143.611 37.1125 143.611C37.1125 143.611 40.0808 160.013 41.8636 160C43.6463 159.987 43.2583 155.527 43.2583 155.527L46.2436 149.08L43.0032 144.64Z" fill="#58453F"/>
<path d="M34.0747 114.723C34.0747 114.723 29.358 121.831 33.4753 126.555C37.5927 131.28 57.8341 131.542 57.8341 131.542L45.0017 140.52L49.7392 144.983C49.7392 144.983 69.1432 133.112 69.2979 130.058C69.4526 127.005 63.4696 124.405 63.4696 124.405L49.4906 119.716L46.3323 117.183L34.0747 114.723Z" fill="#58453F"/>
<path d="M46.1918 98.2611C46.1918 98.2611 41.6054 96.5692 39.4328 96.5692C39.2252 96.5692 39.02 96.5934 38.8149 96.6369C37.4244 96.9318 36.1451 98.1282 35.5319 98.7808C35.2929 99.037 35.1554 99.2086 35.1554 99.2086C35.1554 99.2086 35.1698 99.0418 35.1988 98.7493C35.3412 97.2121 35.8675 92.1679 36.8113 88.9388C37.1492 87.7858 37.5379 86.865 37.9845 86.4178C39.0249 85.3737 39.5052 84.1217 39.7273 83.1887C39.9156 82.3887 39.9156 81.8255 39.9156 81.8255L38.1559 81.0666L37.83 78.9348C37.772 79.1862 37.5041 79.6768 36.6037 80.617C36.5265 80.6968 36.442 80.7645 36.3527 80.8225C35.054 81.6394 32.4059 80.2182 30.9792 79.3239C31.5731 77.2574 32.6497 75.3673 34.605 75.058C39.1914 74.3329 39.1914 71.6742 42.0881 74.5746C42.3271 74.8138 42.5685 75.0435 42.8099 75.2658C43.7369 77.0399 44.0748 79.4182 44.1955 81.0714C44.2824 82.2292 44.2607 83.034 44.2607 83.034C44.2607 83.034 45.4676 90.285 47.3988 91.7352C49.3299 93.1854 46.1918 98.2611 46.1918 98.2611Z" fill="#58453F"/>
<path d="M37.2602 86.6595L33.9985 91.4498L41.3639 93.4271V86.6595H37.2602Z" fill="#FFB6B6"/>
<path opacity="0.1" d="M37.2602 86.6595L33.9985 91.4498L41.3639 93.4271V86.6595H37.2602Z" fill="black"/>
<path d="M41.8221 91.2736L34.8217 88.3732C34.8217 88.3732 25.4074 92.4821 26.1315 100.458C26.8557 108.434 33.6147 122.211 33.6147 122.211L47.1327 116.41L45.6843 100.942L41.8221 91.2736Z" fill="#F3E6DE"/>
<path d="M38.8206 88.7982C42.2315 88.7982 44.9966 86.0296 44.9966 82.6143C44.9966 79.199 42.2315 76.4304 38.8206 76.4304C35.4096 76.4304 32.6445 79.199 32.6445 82.6143C32.6445 86.0296 35.4096 88.7982 38.8206 88.7982Z" fill="#FFB6B6"/>
<path d="M47.1574 80.3753C45.9504 81.5838 44.9848 82.7923 44.9848 82.7923L44.502 80.8587C44.502 80.8587 44.391 80.9409 44.1955 81.0714C43.4303 81.5935 41.376 82.9059 39.7273 83.1887C38.9935 83.3144 38.3417 83.2346 37.9169 82.7923C37.0165 81.8521 36.7485 81.3615 36.6906 81.1101L36.3647 83.2419L34.6049 84.0008C34.6049 84.0008 34.6049 86.6547 36.5361 88.5931C36.6302 88.6874 36.722 88.8034 36.8113 88.9388C37.7334 90.3309 38.3948 93.7389 38.8148 96.6369C39.1866 99.2134 39.3652 101.384 39.3652 101.384C39.3652 101.384 37.5379 99.0926 35.5319 98.7808C35.4209 98.7638 35.3098 98.7517 35.1988 98.7493C35.1626 98.7445 35.1239 98.7445 35.0877 98.7445C32.9152 98.7445 28.3287 100.436 28.3287 100.436C28.3287 100.436 25.1906 95.3607 27.1218 93.9105C29.0529 92.4603 30.2599 85.2093 30.2599 85.2093C30.2599 85.2093 30.1802 82.1059 30.9792 79.3239C31.5731 77.2574 32.6497 75.3673 34.6049 75.058C39.1914 74.3329 39.1914 71.6742 42.0881 74.5746C42.3271 74.8138 42.5685 75.0435 42.8099 75.2658C45.5087 77.7505 48.2654 79.2659 47.1574 80.3753Z" fill="#58453F"/>
<path d="M20.0698 112.82H17.7761V158.178H20.0698V112.82Z" fill="#3F3D56"/>
<path d="M75.6915 112.82H73.3978V158.178H75.6915V112.82Z" fill="#3F3D56"/>
<path d="M61.0692 93.5863H45.8735V108.801H61.0692V93.5863Z" fill="#9F1B13"/>
<path d="M37.1147 109.764L43.2931 105.83L45.8049 107.347L37.1147 117.345V109.764Z" fill="#FFB6B6"/>
<path d="M28.6661 94.5365C28.6661 94.5365 24.5624 95.5033 26.4935 101.062C28.4247 106.622 34.7009 118.223 36.632 117.498C38.5632 116.773 38.8046 109.522 38.8046 109.522C38.8046 109.522 38.5632 109.764 37.5976 108.797C36.632 107.83 36.632 108.272 36.632 107.205C36.632 106.138 35.8423 105.347 35.8423 105.347L34.9423 103.479C34.9423 103.479 34.9423 94.7782 31.3214 94.2948C27.7005 93.8114 28.6661 94.5365 28.6661 94.5365Z" fill="#F3E6DE"/>
<path d="M47.8385 107.087C49.4411 105.482 49.9378 103.378 48.948 102.387C47.9582 101.396 45.8566 101.893 44.254 103.498C42.6514 105.102 42.1547 107.207 43.1445 108.198C44.1344 109.189 46.2359 108.691 47.8385 107.087Z" fill="#FFB6B6"/>
<path d="M80.2789 111.098H10.895V116.265H80.2789V111.098Z" fill="#3F3D56"/>
<path d="M150.772 69.759H140.525C139.713 69.759 139.054 70.4184 139.054 71.2317V75.4632C139.054 76.2766 139.713 76.9359 140.525 76.9359H150.772C151.585 76.9359 152.243 76.2766 152.243 75.4632V71.2317C152.243 70.4184 151.585 69.759 150.772 69.759Z" fill="#3F3D56"/>
<path d="M172.276 73.9906H162.029C161.216 73.9906 160.558 74.6499 160.558 75.4633V75.4633C160.558 76.2766 161.216 76.9359 162.029 76.9359H172.276C173.088 76.9359 173.746 76.2766 173.746 75.4633V75.4633C173.746 74.6499 173.088 73.9906 172.276 73.9906Z" fill="#9F1B13"/>
</g>
<defs>
<clipPath id="clip0_397_1626">
<rect width="244" height="160" fill="white" transform="translate(0.477783)"/>
</clipPath>
</defs>
</svg>
