<svg width="140" height="160" viewBox="0 0 140 160" fill="none" xmlns="http://www.w3.org/2000/svg">
<path d="M125.338 159.46H43.5172C43.5172 159.46 63.8142 150.22 79.0401 148.372C79.0401 148.372 98.6993 110.802 71.4284 83.0905C44.1575 55.3766 56.8402 36.278 63.1841 24.5762C63.1841 24.5762 44.8998 57.5242 78.9533 82.1888C106.64 102.246 97.4366 148.377 97.4366 148.377C97.4366 148.377 118.359 153.297 125.338 159.46Z" fill="#915B57"/>
<path d="M85.7767 72.6427C88.3174 66.1923 90.0162 60.0417 97.6279 58.3448C103.979 56.9279 110.55 58.2235 116.744 56.8809C113.78 63.6161 112.553 71.2778 105.793 75.3254C99.49 79.1005 92.4216 75.1099 86.093 72.7591" fill="#915B57"/>
<path d="M111.512 84.4377C115.897 80.9425 119.588 77.3309 125.491 79.102C130.414 80.5759 134.373 84.0265 139.161 85.488C134.362 89.0154 130.378 93.8607 124.1 94.0563C118.236 94.2322 115.042 88.7306 111.68 84.6433" fill="#915B57"/>
<path d="M111.512 33.9465C111.78 28.4423 111.492 23.3667 116.803 20.2976C121.231 17.7363 126.524 17.1962 130.847 14.7266C130.33 20.5478 131.36 26.6662 127.294 31.3207C123.498 35.6681 117.155 34.2734 111.78 33.9613" fill="#915B57"/>
<path d="M73.27 51.7239C70.2014 43.2423 66.5639 35.7441 72.6527 27.8297C77.734 21.2307 85.3916 17.1484 90.3784 10.75C93.2685 19.8707 98.6941 28.4787 95.4852 38.0304C92.4956 46.9356 82.0143 48.7439 73.6884 51.5852" fill="#915B57"/>
<path d="M45.6012 65.3543C38.566 71.1755 32.6761 77.1552 22.858 74.4898C14.6647 72.2679 7.96114 66.8133 0 64.6086C7.71881 58.723 14.0219 50.7294 24.3706 50.1993C34.0153 49.7088 39.5634 58.5273 45.3155 65.0297" fill="#915B57"/>
<path d="M35.5892 36.7097C30.2784 36.3034 25.3553 36.4198 22.4626 31.4458C20.0495 27.3016 19.5929 22.4167 17.264 18.3691C22.8886 19.0157 28.8167 18.2403 33.2679 22.1145C37.4181 25.7286 35.9846 31.5325 35.6122 36.4669" fill="#915B57"/>
<path d="M54.399 25.6944C49.9988 22.7714 45.6752 20.4925 45.716 14.7803C45.7517 10.0193 47.8587 5.56293 47.9174 0.925781C52.4604 4.20548 58.0008 6.40515 59.8756 11.9192C61.6153 17.0592 57.3988 21.3966 54.5444 25.4938" fill="#915B57"/>
<path d="M57.6768 82.7793C59.5262 91.5631 62.0719 99.4478 54.9322 106.525C48.9836 112.428 40.8388 115.512 35.0178 121.227C33.4389 111.831 29.2861 102.628 33.796 93.5671C38.0023 85.1226 48.6214 84.6396 57.2458 82.8685" fill="#915B57"/>
</svg>
