<svg width="172" height="160" viewBox="0 0 172 160" fill="none" xmlns="http://www.w3.org/2000/svg">
<path d="M124.204 53.0801C119.699 53.0801 116.033 56.6611 116.033 61.0611V76.6233C116.033 81.0233 119.699 84.6043 124.204 84.6043C128.709 84.6043 132.375 81.0233 132.375 76.6233V61.0611C132.375 56.6611 128.709 53.0801 124.204 53.0801Z" fill="#915B57"/>
<path d="M71.4532 73.5944V50.8131C71.4532 46.413 67.787 42.832 63.2822 42.832C58.7773 42.832 55.1111 46.413 55.1111 50.8131V70.5467C55.6766 70.5848 56.2422 70.6419 56.8077 70.7562L71.4337 73.5944H71.4532Z" fill="#915B57"/>
<path d="M114.064 83.1203C111.899 86.3585 108.155 88.4918 103.903 88.4918C100.315 88.4918 97.0779 86.968 94.8547 84.5299C94.7962 84.968 94.6792 85.4061 94.5427 85.8251C92.3001 92.0347 86.2546 96.2443 79.5072 96.2634H78.5321C78.6296 96.3205 78.7271 96.3776 78.8246 96.4348C84.3045 99.5967 90.857 105.863 90.857 117.673C90.857 118.74 89.9599 119.616 88.8678 119.616C87.7757 119.616 86.8787 118.74 86.8787 117.673C86.8787 109.711 83.5245 103.711 76.9135 99.8444C71.8236 96.8729 66.5973 96.3014 66.5583 96.3014C65.5052 96.1872 64.7252 95.311 64.7837 94.2633C64.8422 93.2347 65.7002 92.4157 66.7533 92.4157L79.4877 92.3776C84.558 92.3776 89.1018 89.2156 90.7985 84.5299C91.0715 83.7489 90.9935 82.9489 90.5839 82.2251C90.1744 81.5203 89.4919 81.0441 88.6728 80.8727L56.0471 74.5488C51.9518 73.7488 47.876 75.9393 46.3549 79.7298L40.719 93.7871C38.1448 100.206 38.9639 107.425 42.9226 113.14L60.0448 137.807C62.034 140.664 63.087 144.016 63.087 147.464V159.407H119.426V145.102C119.426 144.759 119.524 144.435 119.699 144.131L125.121 134.95C129.86 126.911 132.375 117.749 132.375 108.454V85.368C130.211 87.2918 127.344 88.4537 124.204 88.4537C119.953 88.4537 116.228 86.3204 114.044 83.0822L114.064 83.1203Z" fill="#915B57"/>
<path d="M91.6565 77.939C91.7345 77.52 91.7735 77.0819 91.7735 76.6438V53.5006C91.7735 49.1005 88.1073 45.5195 83.6025 45.5195C79.0976 45.5195 75.4314 49.1005 75.4314 53.5006V74.3961L89.4334 77.12C90.2329 77.2723 90.974 77.5581 91.6565 77.9581V77.939Z" fill="#915B57"/>
<path d="M103.903 84.6052C108.408 84.6052 112.074 81.0242 112.074 76.6241V57.7857C112.074 53.3857 108.408 49.8047 103.903 49.8047C99.3984 49.8047 95.7322 53.3857 95.7322 57.7857V76.6241C95.7322 81.0242 99.3984 84.6052 103.903 84.6052Z" fill="#915B57"/>
<path d="M85.8063 18.338C86.8984 18.338 87.7954 17.4618 87.7954 16.3951V2.81398C87.7954 1.7473 86.8984 0.871094 85.8063 0.871094C84.7142 0.871094 83.8171 1.7473 83.8171 2.81398V16.3951C83.8171 17.4618 84.7142 18.338 85.8063 18.338Z" fill="#915B57"/>
<path d="M15.8936 99.1953H1.98914C0.897062 99.1953 0 100.072 0 101.138C0 102.205 0.897062 103.081 1.98914 103.081H15.8936C16.9857 103.081 17.8827 102.205 17.8827 101.138C17.8827 100.072 16.9857 99.1953 15.8936 99.1953Z" fill="#915B57"/>
<path d="M47.291 31.311C47.7005 31.311 48.1101 31.1776 48.4806 30.93C49.3582 30.2824 49.5532 29.0824 48.8901 28.2062L40.6021 17.2917C39.939 16.4346 38.7104 16.2441 37.8134 16.8917C36.9358 17.5393 36.7408 18.7394 37.4038 19.6156L45.6919 30.53C46.0819 31.0443 46.6865 31.311 47.291 31.311Z" fill="#915B57"/>
<path d="M22.7388 60.1846L9.59486 55.7464C8.56128 55.4036 7.43021 55.9369 7.05968 56.9464C6.70866 57.956 7.25469 59.0607 8.28827 59.4227L21.4322 63.8608C21.6467 63.937 21.8612 63.9751 22.0757 63.9751C22.8948 63.9751 23.6748 63.4799 23.9478 62.6608C24.2989 61.6513 23.7528 60.5465 22.7193 60.1846H22.7388Z" fill="#915B57"/>
<path d="M169.623 99.1953H155.719C154.626 99.1953 153.729 100.072 153.729 101.138C153.729 102.205 154.626 103.081 155.719 103.081H169.623C170.715 103.081 171.612 102.205 171.612 101.138C171.612 100.072 170.715 99.1953 169.623 99.1953Z" fill="#915B57"/>
<path d="M133.799 16.8917C132.921 16.2441 131.673 16.4346 131.01 17.2917L122.722 28.2062C122.059 29.0633 122.254 30.2824 123.132 30.93C123.483 31.1967 123.912 31.311 124.321 31.311C124.926 31.311 125.53 31.0443 125.92 30.53L134.208 19.6156C134.872 18.7584 134.677 17.5393 133.799 16.8917Z" fill="#915B57"/>
<path d="M164.553 56.9464C164.202 55.9369 163.07 55.4036 162.017 55.7464L148.873 60.1846C147.84 60.5274 147.294 61.6322 147.645 62.6608C147.937 63.4608 148.698 63.9751 149.517 63.9751C149.732 63.9751 149.946 63.937 150.161 63.8608L163.304 59.4227C164.338 59.0798 164.884 57.975 164.533 56.9464H164.553Z" fill="#915B57"/>
</svg>
