<svg width="48" height="48" viewBox="0 0 48 48" fill="none" xmlns="http://www.w3.org/2000/svg">
<g id="bxs:leaf" opacity="0.8">
<path id="Vector" d="M44.0001 6.82005L43.7601 4.30005L41.3601 5.10005C37.247 6.52914 32.8546 6.96768 28.5401 6.38005C24.0064 5.67647 19.366 6.30168 15.1801 8.18005C12.9611 9.12494 11.0136 10.6099 9.51507 12.4997C8.01651 14.3895 7.01445 16.6241 6.60012 19C6.06288 22.0694 6.33164 25.2257 7.38012 28.16C8.05523 26.6362 8.84413 25.1654 9.74012 23.76C11.7725 20.7697 14.5887 18.3964 17.8801 16.9C21.051 15.4523 24.5169 14.7673 28.0001 14.9C24.6842 15.407 21.5101 16.599 18.6801 18.4C17.3151 19.2577 16.065 20.286 14.9601 21.46C13.9034 22.6335 12.9718 23.9137 12.1801 25.28C10.6932 28.1361 9.63515 31.1956 9.04012 34.3601C8.39875 37.5347 8.05061 40.7616 8.00012 44H12.0001C12.1881 41.0957 12.5824 38.2084 13.1801 35.3601C15.955 36.8585 19.0668 37.6226 22.2201 37.5801C25.1611 37.578 28.0718 36.9864 30.7801 35.84C46.0001 29.34 44.0001 7.72005 44.0001 6.82005Z" fill="#6E8C03"/>
</g>
</svg>
