<svg width="40" height="40" viewBox="0 0 40 40" fill="none" xmlns="http://www.w3.org/2000/svg">
<path d="M38.8512 37.0513L29.845 28.0097C32.2787 25.1247 33.7638 21.3976 33.7638 17.3254C33.7638 8.18725 26.3663 0.760742 17.2638 0.760742C8.16125 0.760742 0.75 8.18725 0.75 17.3254C0.75 26.4636 8.1475 33.8902 17.25 33.8902C21.3063 33.8902 25.0187 32.4131 27.8925 29.956L36.8988 38.9976C38.1638 40.2676 40.1438 38.3488 38.8375 37.0513H38.8512ZM3.5 17.3254C3.5 9.71949 9.67375 3.52153 17.25 3.52153C24.8263 3.52153 31 9.71949 31 17.3254C31 24.9314 24.8263 31.1294 17.25 31.1294C9.67375 31.1294 3.5 24.9314 3.5 17.3254Z" fill="#F3E6DE"/>
</svg>
