<svg width="48" height="48" viewBox="0 0 48 48" fill="none" xmlns="http://www.w3.org/2000/svg">
<circle cx="24" cy="24" r="23.5" fill="white" stroke="#58453F"/>
<path d="M19.74 31V29.64L25.44 24.14C25.9467 23.66 26.32 23.24 26.56 22.88C26.8133 22.5067 26.98 22.1667 27.06 21.86C27.1533 21.54 27.2 21.2333 27.2 20.94C27.2 20.22 26.9467 19.6533 26.44 19.24C25.9333 18.8267 25.1933 18.62 24.22 18.62C23.4733 18.62 22.8 18.7467 22.2 19C21.6 19.24 21.08 19.62 20.64 20.14L19.28 18.96C19.8133 18.28 20.5267 17.76 21.42 17.4C22.3267 17.0267 23.32 16.84 24.4 16.84C25.3733 16.84 26.22 17 26.94 17.32C27.66 17.6267 28.2133 18.0733 28.6 18.66C29 19.2467 29.2 19.94 29.2 20.74C29.2 21.1933 29.14 21.64 29.02 22.08C28.9 22.52 28.6733 22.9867 28.34 23.48C28.0067 23.9733 27.5267 24.5267 26.9 25.14L21.82 30.04L21.34 29.26H29.8V31H19.74Z" fill="#58453F"/>
</svg>
