<svg width="188" height="50" viewBox="0 0 188 50" fill="none" xmlns="http://www.w3.org/2000/svg">
<path fill-rule="evenodd" clip-rule="evenodd" d="M25 0C11.1929 0 0 11.1929 0 25C0 38.8071 11.1929 50 25 50C38.8071 50 50 38.8071 50 25C50 11.1929 38.8071 0 25 0ZM19.5034 11.7472C20.9256 11.6825 21.3801 11.6667 25.0012 11.6667H24.9971C28.6194 11.6667 29.0721 11.6825 30.4944 11.7472C31.9139 11.8122 32.8832 12.037 33.7333 12.3667C34.611 12.707 35.3527 13.1625 36.0944 13.9042C36.8361 14.6453 37.2917 15.3892 37.6333 16.2661C37.9611 17.114 38.1861 18.0828 38.2528 19.5023C38.3167 20.9246 38.3333 21.379 38.3333 25.0001C38.3333 28.6212 38.3167 29.0746 38.2528 30.4969C38.1861 31.9157 37.9611 32.8849 37.6333 33.733C37.2917 34.6097 36.8361 35.3535 36.0944 36.0947C35.3535 36.8364 34.6108 37.293 33.7342 37.6336C32.8857 37.9633 31.9157 38.188 30.4964 38.253C29.0741 38.3178 28.621 38.3336 24.9996 38.3336C21.3787 38.3336 20.9246 38.3178 19.5023 38.253C18.0831 38.188 17.114 37.9633 16.2656 37.6336C15.3892 37.293 14.6453 36.8364 13.9045 36.0947C13.163 35.3535 12.7075 34.6097 12.3667 33.7327C12.0372 32.8849 11.8125 31.916 11.7472 30.4966C11.6828 29.0744 11.6667 28.6212 11.6667 25.0001C11.6667 21.379 11.6833 20.9243 11.747 19.502C11.8108 18.0831 12.0358 17.114 12.3664 16.2658C12.708 15.3892 13.1636 14.6453 13.9053 13.9042C14.6465 13.1628 15.3903 12.7072 16.2673 12.3667C17.1151 12.037 18.084 11.8122 19.5034 11.7472Z" fill="#F3E6DE"/>
<path fill-rule="evenodd" clip-rule="evenodd" d="M23.8052 14.0695C24.0374 14.0692 24.2873 14.0693 24.5569 14.0694L25.0014 14.0695C28.5614 14.0695 28.9833 14.0823 30.3892 14.1461C31.6892 14.2056 32.3947 14.4228 32.8647 14.6053C33.487 14.847 33.9305 15.1359 34.397 15.6026C34.8636 16.0693 35.1525 16.5138 35.3948 17.1359C35.5773 17.6054 35.7948 18.3109 35.854 19.6109C35.9178 21.0166 35.9317 21.4388 35.9317 24.9971C35.9317 28.5555 35.9178 28.9777 35.854 30.3833C35.7945 31.6833 35.5773 32.3889 35.3948 32.8583C35.1531 33.4805 34.8636 33.9236 34.397 34.39C33.9303 34.8567 33.4872 35.1456 32.8647 35.3873C32.3953 35.5706 31.6892 35.7873 30.3892 35.8467C28.9835 35.9106 28.5614 35.9245 25.0014 35.9245C21.441 35.9245 21.0191 35.9106 19.6134 35.8467C18.3134 35.7867 17.6079 35.5695 17.1376 35.387C16.5154 35.1453 16.0709 34.8564 15.6043 34.3897C15.1376 33.923 14.8487 33.4797 14.6065 32.8572C14.424 32.3878 14.2065 31.6822 14.1473 30.3822C14.0834 28.9767 14.0706 28.5544 14.0706 24.9937C14.0706 21.4332 14.0834 21.0132 14.1473 19.6076C14.2068 18.3076 14.424 17.6021 14.6065 17.1321C14.8481 16.5098 15.1376 16.0654 15.6043 15.5988C16.0709 15.1321 16.5154 14.8431 17.1376 14.6009C17.6076 14.4176 18.3134 14.2009 19.6134 14.1411C20.8434 14.0856 21.3202 14.069 23.8052 14.0661V14.0695ZM32.1186 16.2834C31.2353 16.2834 30.5185 16.9993 30.5185 17.8829C30.5185 18.7663 31.2353 19.4829 32.1186 19.4829C33.002 19.4829 33.7186 18.7663 33.7186 17.8829C33.7186 16.9996 33.002 16.2834 32.1186 16.2834ZM18.1541 25.0002C18.1541 21.2189 21.2197 18.153 25.001 18.1529C28.7825 18.1529 31.8475 21.2188 31.8475 25.0002C31.8475 28.7817 28.7827 31.8461 25.0014 31.8461C21.2199 31.8461 18.1541 28.7817 18.1541 25.0002Z" fill="#F3E6DE"/>
<path d="M25.0012 20.5556C27.4557 20.5556 29.4457 22.5454 29.4457 25.0001C29.4457 27.4546 27.4557 29.4446 25.0012 29.4446C22.5466 29.4446 20.5568 27.4546 20.5568 25.0001C20.5568 22.5454 22.5466 20.5556 25.0012 20.5556Z" fill="#F3E6DE"/>
<path fill-rule="evenodd" clip-rule="evenodd" d="M94 0C80.1929 0 69 11.1929 69 25C69 38.8071 80.1929 50 94 50C107.807 50 119 38.8071 119 25C119 11.1929 107.807 0 94 0ZM96.6058 26.0981V39.6995H90.9782V26.0986H88.1667V21.4116H90.9782V18.5975C90.9782 14.7737 92.5657 12.5 97.0762 12.5H100.831V17.1876H98.4842C96.7283 17.1876 96.6122 17.8426 96.6122 19.0651L96.6058 21.411H100.858L100.36 26.0981H96.6058Z" fill="#F3E6DE"/>
<path fill-rule="evenodd" clip-rule="evenodd" d="M163 0C149.193 0 138 11.1929 138 25C138 38.8071 149.193 50 163 50C176.807 50 188 38.8071 188 25C188 11.1929 176.807 0 163 0ZM150.002 20.706H155.667V37.7287H150.002V20.706ZM156.04 15.4403C156.004 13.7712 154.81 12.5 152.872 12.5C150.934 12.5 149.667 13.7712 149.667 15.4403C149.667 17.0748 150.896 18.3826 152.798 18.3826H152.835C154.81 18.3826 156.04 17.0748 156.04 15.4403ZM169.576 20.3064C173.304 20.3064 176.099 22.7399 176.099 27.9684L176.099 37.7287H170.434V28.6216C170.434 26.3341 169.614 24.7731 167.563 24.7731C165.998 24.7731 165.066 25.8254 164.656 26.8419C164.506 27.206 164.469 27.7135 164.469 28.2223V37.7292H158.803C158.803 37.7292 158.878 22.3039 158.803 20.7066H164.469V23.1176C165.221 21.9585 166.568 20.3064 169.576 20.3064Z" fill="#F3E6DE"/>
</svg>
