<svg width="152" height="24" viewBox="0 0 152 24" fill="none" xmlns="http://www.w3.org/2000/svg">
<path d="M14 13.5H16.5L17.5 9.5H14V7.5C14 6.47 14 5.5 16 5.5H17.5V2.14C17.174 2.097 15.943 2 14.643 2C11.928 2 10 3.657 10 6.7V9.5H7V13.5H10V22H14V13.5Z" fill="#E66C51"/>
<path d="M71.8 2H80.2C83.4 2 86 4.6 86 7.8V16.2C86 17.7383 85.3889 19.2135 84.3012 20.3012C83.2135 21.3889 81.7383 22 80.2 22H71.8C68.6 22 66 19.4 66 16.2V7.8C66 6.26174 66.6111 4.78649 67.6988 3.69878C68.7865 2.61107 70.2617 2 71.8 2ZM71.6 4C70.6452 4 69.7295 4.37928 69.0544 5.05442C68.3793 5.72955 68 6.64522 68 7.6V16.4C68 18.39 69.61 20 71.6 20H80.4C81.3548 20 82.2705 19.6207 82.9456 18.9456C83.6207 18.2705 84 17.3548 84 16.4V7.6C84 5.61 82.39 4 80.4 4H71.6ZM81.25 5.5C81.5815 5.5 81.8995 5.6317 82.1339 5.86612C82.3683 6.10054 82.5 6.41848 82.5 6.75C82.5 7.08152 82.3683 7.39946 82.1339 7.63388C81.8995 7.8683 81.5815 8 81.25 8C80.9185 8 80.6005 7.8683 80.3661 7.63388C80.1317 7.39946 80 7.08152 80 6.75C80 6.41848 80.1317 6.10054 80.3661 5.86612C80.6005 5.6317 80.9185 5.5 81.25 5.5ZM76 7C77.3261 7 78.5979 7.52678 79.5355 8.46447C80.4732 9.40215 81 10.6739 81 12C81 13.3261 80.4732 14.5979 79.5355 15.5355C78.5979 16.4732 77.3261 17 76 17C74.6739 17 73.4021 16.4732 72.4645 15.5355C71.5268 14.5979 71 13.3261 71 12C71 10.6739 71.5268 9.40215 72.4645 8.46447C73.4021 7.52678 74.6739 7 76 7ZM76 9C75.2044 9 74.4413 9.31607 73.8787 9.87868C73.3161 10.4413 73 11.2044 73 12C73 12.7956 73.3161 13.5587 73.8787 14.1213C74.4413 14.6839 75.2044 15 76 15C76.7956 15 77.5587 14.6839 78.1213 14.1213C78.6839 13.5587 79 12.7956 79 12C79 11.2044 78.6839 10.4413 78.1213 9.87868C77.5587 9.31607 76.7956 9 76 9Z" fill="#E66C51"/>
<path d="M132.75 1.875C132.186 1.875 131.646 2.09888 131.247 2.4974C130.849 2.89591 130.625 3.43641 130.625 4C130.625 4.56359 130.849 5.10409 131.247 5.5026C131.646 5.90112 132.186 6.125 132.75 6.125C133.314 6.125 133.854 5.90112 134.253 5.5026C134.651 5.10409 134.875 4.56359 134.875 4C134.875 3.43641 134.651 2.89591 134.253 2.4974C133.854 2.09888 133.314 1.875 132.75 1.875ZM130.75 7.875C130.717 7.875 130.685 7.88817 130.662 7.91161C130.638 7.93505 130.625 7.96685 130.625 8V21C130.625 21.069 130.681 21.125 130.75 21.125H134.75C134.783 21.125 134.815 21.1118 134.838 21.0884C134.862 21.0649 134.875 21.0332 134.875 21V8C134.875 7.96685 134.862 7.93505 134.838 7.91161C134.815 7.88817 134.783 7.875 134.75 7.875H130.75ZM137.25 7.875C137.217 7.875 137.185 7.88817 137.162 7.91161C137.138 7.93505 137.125 7.96685 137.125 8V21C137.125 21.069 137.181 21.125 137.25 21.125H141.25C141.283 21.125 141.315 21.1118 141.338 21.0884C141.362 21.0649 141.375 21.0332 141.375 21V14C141.375 13.5027 141.573 13.0258 141.924 12.6742C142.276 12.3225 142.753 12.125 143.25 12.125C143.747 12.125 144.224 12.3225 144.576 12.6742C144.927 13.0258 145.125 13.5027 145.125 14V21C145.125 21.069 145.181 21.125 145.25 21.125H149.25C149.283 21.125 149.315 21.1118 149.338 21.0884C149.362 21.0649 149.375 21.0332 149.375 21V12.38C149.375 9.953 147.265 8.055 144.85 8.274C144.103 8.34202 143.371 8.52694 142.681 8.822L141.375 9.382V8C141.375 7.96685 141.362 7.93505 141.338 7.91161C141.315 7.88817 141.283 7.875 141.25 7.875H137.25Z" fill="#E66C51"/>
</svg>
