<svg width="163" height="160" viewBox="0 0 163 160" fill="none" xmlns="http://www.w3.org/2000/svg">
<g clip-path="url(#clip0_411_1708)">
<path d="M24.1631 102.069C37.234 102.069 47.8301 91.433 47.8301 78.3132C47.8301 65.1934 37.234 54.5577 24.1631 54.5577C11.0923 54.5577 0.496216 65.1934 0.496216 78.3132C0.496216 91.433 11.0923 102.069 24.1631 102.069Z" fill="#F2F2F2"/>
<path d="M24.3746 79.3036C29.5869 79.3036 33.8122 75.0625 33.8122 69.8307C33.8122 64.599 29.5869 60.3578 24.3746 60.3578C19.1624 60.3578 14.937 64.599 14.937 69.8307C14.937 75.0625 19.1624 79.3036 24.3746 79.3036Z" fill="#2F2E41"/>
<path d="M47.9583 23.7976C47.95 28.496 46.5539 33.0864 43.9464 36.9883C41.339 40.8903 37.6373 43.9285 33.3096 45.7188C28.9819 47.5091 24.2224 47.9711 19.6331 47.0463C15.0438 46.1215 10.8308 43.8515 7.52676 40.5234C4.22275 37.1952 1.97618 32.9584 1.07113 28.3486C0.166074 23.7389 0.643195 18.9633 2.44215 14.6258C4.24111 10.2882 7.2811 6.58351 11.1777 3.98015C15.0743 1.3768 19.6525 -0.00829259 24.3334 3.73523e-05C27.4437 -0.00252893 30.5238 0.611877 33.3967 1.80795C36.2696 3.00402 38.8788 4.75817 41.0742 6.9696C43.2695 9.18103 45.0079 11.8061 46.1893 14.694C47.3707 17.582 47.9719 20.6757 47.9583 23.7976Z" fill="#F2F2F2"/>
<path d="M80.3241 102.069C93.395 102.069 103.991 91.433 103.991 78.3132C103.991 65.1934 93.395 54.5577 80.3241 54.5577C67.2533 54.5577 56.6572 65.1934 56.6572 78.3132C56.6572 91.433 67.2533 102.069 80.3241 102.069Z" fill="#F2F2F2"/>
<path d="M80.2553 47.511C93.3262 47.511 103.922 36.8753 103.922 23.7555C103.922 10.6357 93.3262 0 80.2553 0C67.1844 0 56.5884 10.6357 56.5884 23.7555C56.5884 36.8753 67.1844 47.511 80.2553 47.511Z" fill="#F2F2F2"/>
<path d="M137.937 47.511C151.008 47.511 161.604 36.8753 161.604 23.7555C161.604 10.6357 151.008 0 137.937 0C124.866 0 114.27 10.6357 114.27 23.7555C114.27 36.8753 124.866 47.511 137.937 47.511Z" fill="#F2F2F2"/>
<path d="M138.793 102.069C151.863 102.069 162.459 91.433 162.459 78.3132C162.459 65.1934 151.863 54.5577 138.793 54.5577C125.722 54.5577 115.126 65.1934 115.126 78.3132C115.126 91.433 125.722 102.069 138.793 102.069Z" fill="#F2F2F2"/>
<path d="M47.9584 136.244C47.9584 140.943 46.5703 145.536 43.9698 149.442C41.3692 153.349 37.673 156.394 33.3484 158.192C29.0238 159.99 24.2652 160.46 19.6743 159.543C15.0833 158.627 10.8663 156.364 7.55641 153.042C4.24653 149.72 1.99247 145.487 1.07928 140.879C0.166082 136.271 0.634768 131.494 2.42606 127.154C4.21735 122.813 7.2508 119.103 11.1428 116.492C15.0348 113.882 19.6106 112.489 24.2914 112.489C27.4033 112.475 30.4871 113.08 33.3647 114.269C36.2424 115.458 38.8569 117.207 41.0574 119.416C43.2578 121.624 45.0006 124.249 46.185 127.137C47.3695 130.026 47.9722 133.121 47.9584 136.244Z" fill="#F2F2F2"/>
<path d="M81.7762 160C94.847 160 105.443 149.364 105.443 136.245C105.443 123.125 94.847 112.489 81.7762 112.489C68.7053 112.489 58.1093 123.125 58.1093 136.245C58.1093 149.364 68.7053 160 81.7762 160Z" fill="#F2F2F2"/>
<path d="M13.322 16.0279C14.3006 12.8974 16.526 10.0262 19.6037 8.96794C22.6816 7.90966 27.1883 9.52176 29.5022 11.8364C33.7347 16.0704 34.7676 30.6157 31.8597 35.2122C31.2813 35.1815 29.2855 35.1588 28.7001 35.1368L27.872 32.3663V35.1094C26.9393 35.0805 25.9994 35.0605 25.0522 35.0495C21.8763 35.01 18.8394 33.7361 16.5799 31.4956C14.3205 29.2552 13.0144 26.2227 12.9362 23.0357C12.8605 19.9868 12.9363 17.2615 13.322 16.0279Z" fill="#2F2E41"/>
<path d="M23.9403 26.4031C27.6655 26.4031 30.6853 23.372 30.6853 19.6329C30.6853 15.8939 27.6655 12.8628 23.9403 12.8628C20.2152 12.8628 17.1954 15.8939 17.1954 19.6329C17.1954 23.372 20.2152 26.4031 23.9403 26.4031Z" fill="#9E616A"/>
<path d="M18.1194 13.6871L25.8855 9.78381C27.4732 10.502 28.8406 11.6334 29.8459 13.0607C30.8512 14.4881 31.4577 16.1594 31.6026 17.9014L31.7962 20.2287L28.5441 19.3978L28.1878 16.4218L27.6356 19.1657L26.1348 18.7824L26.1491 14.1622L24.6473 18.7791L19.2871 17.543L18.1194 13.6871Z" fill="#2F2E41"/>
<path d="M73.825 69.3994C75.6704 69.3994 77.1664 67.8978 77.1664 66.0455C77.1664 64.1932 75.6704 62.6917 73.825 62.6917C71.9796 62.6917 70.4836 64.1932 70.4836 66.0455C70.4836 67.8978 71.9796 69.3994 73.825 69.3994Z" fill="#2F2E41"/>
<path d="M79.1712 82.1441C83.8462 82.1441 87.636 78.3401 87.636 73.6476C87.636 68.9551 83.8462 65.1511 79.1712 65.1511C74.4962 65.1511 70.7064 68.9551 70.7064 73.6476C70.7064 78.3401 74.4962 82.1441 79.1712 82.1441Z" fill="#2F2E41"/>
<path d="M79.8717 82.1421C83.6706 82.1421 86.7503 79.0509 86.7503 75.2377C86.7503 71.4246 83.6706 68.3334 79.8717 68.3334C76.0727 68.3334 72.993 71.4246 72.993 75.2377C72.993 79.0509 76.0727 82.1421 79.8717 82.1421Z" fill="#9E616A"/>
<path d="M84.543 68.1996C83.3377 67.462 81.957 67.0631 80.5455 67.0444C79.1339 67.0257 77.7433 67.388 76.519 68.0934C75.2947 68.7989 74.2817 69.8215 73.5859 71.0544C72.8901 72.2873 72.5371 73.6851 72.5638 75.1018C76.0688 75.9851 79.751 76.6611 83.4889 75.3131L84.3716 73.1447L84.892 75.3147C86.0303 75.7817 87.1715 76.1769 88.3128 75.3102C88.3594 73.8975 88.0357 72.4973 87.3742 71.2495C86.7126 70.0017 85.7364 68.95 84.543 68.1996Z" fill="#2F2E41"/>
<path d="M70.714 56.941C68.4035 55.8777 65.5044 56.3766 63.5805 58.0441C61.6566 59.7115 60.742 62.4253 61.1134 64.9493C61.4923 67.5241 63.0518 69.7414 64.4893 71.9076C65.9268 74.0738 67.3312 76.4475 67.3296 79.0503C67.3284 80.9249 66.5866 82.7226 65.2669 84.0491C63.9472 85.3756 62.1572 86.1226 60.2896 86.1263C62.4815 87.0735 64.7694 88.0393 67.1533 87.927C69.5372 87.8147 72.0358 86.2765 72.4247 83.913C72.7049 82.2101 71.8725 80.5495 71.1783 78.9704C70.0475 76.3974 69.2302 73.6968 68.744 70.9272C68.5121 69.6053 68.3612 68.2156 68.7905 66.9445C69.1324 66.0025 69.7668 65.1958 70.6002 64.6432C71.4336 64.0906 72.4218 63.8215 73.4191 63.8755L74.2068 63.1642C74.5572 60.6372 73.0246 58.0044 70.714 56.941Z" fill="#2F2E41"/>
<path d="M128.278 14.4637C127.953 16.2154 127.421 17.9218 126.692 19.5464C122.517 28.4113 134.406 25.5218 138.655 25.5218C143.3 25.5218 147.745 27.9737 147.066 17.0789C146.776 12.4252 143.3 8.63611 138.655 8.63611C134.687 8.63611 129.108 10.4064 128.278 14.4637Z" fill="#2F2E41"/>
<path d="M137.959 25.5196C141.734 25.5196 144.794 22.4479 144.794 18.6589C144.794 14.8698 141.734 11.7981 137.959 11.7981C134.184 11.7981 131.124 14.8698 131.124 18.6589C131.124 22.4479 134.184 25.5196 137.959 25.5196Z" fill="#FFB6B6"/>
<path d="M133.317 11.6654C134.515 10.9324 135.887 10.536 137.289 10.5174C138.692 10.4988 140.074 10.8589 141.29 11.5598C142.507 12.2608 143.514 13.277 144.205 14.5021C144.896 15.7272 145.247 17.1162 145.221 18.524C141.738 19.4017 138.079 20.0734 134.365 18.7339L133.487 16.5792L132.97 18.7355C131.839 19.1996 130.705 19.5922 129.571 18.731C129.525 17.3273 129.846 15.9359 130.504 14.6959C131.161 13.456 132.131 12.411 133.317 11.6654Z" fill="#2F2E41"/>
<path d="M24.3784 80.5481C29.0347 80.5481 32.8094 76.7592 32.8094 72.0855C32.8094 67.4117 29.0347 63.6229 24.3784 63.6229C19.7221 63.6229 15.9474 67.4117 15.9474 72.0855C15.9474 76.7592 19.7221 80.5481 24.3784 80.5481Z" fill="#FFB8B8"/>
<path d="M81.2552 138.709C85.2206 138.709 88.4351 135.482 88.4351 131.502C88.4351 127.522 85.2206 124.295 81.2552 124.295C77.2898 124.295 74.0752 127.522 74.0752 131.502C74.0752 135.482 77.2898 138.709 81.2552 138.709Z" fill="#9E616A"/>
<path d="M81.2198 26.1788C85.482 26.1788 88.9372 22.7107 88.9372 18.4325C88.9372 14.1544 85.482 10.6863 81.2198 10.6863C76.9576 10.6863 73.5024 14.1544 73.5024 18.4325C73.5024 22.7107 76.9576 26.1788 81.2198 26.1788Z" fill="#FFB8B8"/>
<path d="M88.0148 13.3152C88.0148 13.3152 90.0241 9.45957 85.6035 9.10906C85.6035 9.10906 81.8349 5.67766 77.9937 8.48175C77.9937 8.48175 75.8985 8.48175 74.7527 10.8616C74.7527 10.8616 73.1048 10.2343 72.7427 11.9131C72.7427 11.9131 71.5369 15.4182 72.7427 18.5728C73.9485 21.7274 74.349 22.0779 74.349 22.0779C74.349 22.0779 73.503 18.1633 78.3259 17.8128C83.1487 17.4622 87.5733 14.4296 87.9752 18.2852C88.3771 22.1408 88.819 20.3991 88.819 20.3991C88.819 20.3991 92.6364 14.8925 88.0148 13.3152Z" fill="#2F2E41"/>
<path d="M138.139 81.2561C142.312 81.2561 145.694 77.8611 145.694 73.6731C145.694 69.4851 142.312 66.0901 138.139 66.0901C133.967 66.0901 130.585 69.4851 130.585 73.6731C130.585 77.8611 133.967 81.2561 138.139 81.2561Z" fill="#FFB6B6"/>
<path d="M33.9706 130.56L33.8535 130.772C34.8958 128.194 33.948 125.017 32.0886 123.073C30.2293 121.128 27.6444 120.239 25.0991 119.887C23.2096 119.625 21.2484 119.633 19.4518 120.327C16.85 121.333 14.8623 123.662 13.2027 126.085C12.4435 127.193 11.6971 128.456 11.7728 129.841C11.843 131.126 12.603 132.217 13.2255 133.308C13.848 134.398 14.3678 135.751 13.921 136.941C13.6548 137.65 13.0922 138.161 12.6357 138.741C12.1792 139.321 11.8036 140.106 12.0241 140.834C12.122 141.112 12.2902 141.36 12.5123 141.554C12.7344 141.748 13.0028 141.88 13.2912 141.939C13.8431 142.068 14.4156 141.984 14.9745 141.899L29.4825 139.699C30.4684 139.549 31.4036 139.163 32.2084 138.572C33.0132 137.981 33.6638 137.204 34.1046 136.306C34.5455 135.409 34.7635 134.417 34.7402 133.417C34.7169 132.416 34.4528 131.436 33.9706 130.56Z" fill="#2F2E41"/>
<path d="M30.181 133.618C30.8085 129.736 28.1825 126.079 24.3156 125.449C20.4487 124.82 16.8052 127.456 16.1777 131.337C15.5502 135.218 18.1763 138.875 22.0432 139.505C25.9101 140.135 29.5535 137.499 30.181 133.618Z" fill="#FFB9B9"/>
<path d="M42.0625 151.929C37.9623 156.612 32.1918 159.489 25.9969 159.938C19.8019 160.388 13.6794 158.374 8.95093 154.331L10.9809 148.646C11.4396 147.636 12.1636 146.77 13.0751 146.142C13.9865 145.514 15.0512 145.147 16.1549 145.079L17.4463 145L20.5257 142.334C20.5257 142.334 28.8229 142.037 28.6998 141.894L33.7257 144.929L33.7215 144.908L35.6972 145.029C36.801 145.096 37.8658 145.463 38.7773 146.092C39.6889 146.72 40.4127 147.585 40.8712 148.595L42.0625 151.929Z" fill="#D98982"/>
<path d="M99.2269 151.929C95.1267 156.612 89.3563 159.489 83.1613 159.938C76.9664 160.388 70.8438 158.374 66.1154 154.331L68.1453 148.646C68.6041 147.636 69.328 146.77 70.2395 146.142C71.151 145.514 72.2156 145.147 73.3193 145.079L74.6107 145L77.6901 142.334C77.6901 142.334 85.9873 142.037 85.8642 141.894L90.8901 144.929L90.8859 144.908L92.8617 145.029C93.9654 145.096 95.0302 145.463 95.9417 146.092C96.8533 146.72 97.5772 147.585 98.0357 148.595L99.2269 151.929Z" fill="#D98982"/>
<path d="M29.9075 125.869C29.7244 124.897 28.7364 124.452 27.89 124.237C25.4348 123.608 22.8808 123.467 20.3718 123.822C18.5427 124.084 16.6703 124.662 15.3431 126.095C14.273 127.301 13.6667 128.851 13.6331 130.466C13.5789 131.432 13.7939 132.394 14.2539 133.244C14.7315 134.055 15.5455 134.644 16.3858 134.623L16.4709 134.92C20.0322 134.422 23.3403 132.198 25.4238 128.901C25.0328 130.302 24.2546 131.564 23.1792 132.54C25.5836 131.575 27.6736 129.958 29.2164 127.87C29.6377 127.309 30.0467 126.609 29.9075 125.869Z" fill="#2F2E41"/>
<path d="M41.8539 93.9225C37.7537 98.6054 31.9832 101.482 25.7883 101.931C19.5933 102.381 13.4708 100.367 8.74231 96.3244L10.7723 90.639C11.231 89.6291 11.9549 88.7637 12.8664 88.1354C13.7779 87.5072 14.8426 87.1398 15.9463 87.0727L17.2377 86.9931L20.3171 84.3273C20.3171 84.3273 28.6143 84.03 28.4912 83.8876L33.5171 86.9219L33.5129 86.901L35.4886 87.0224C36.5924 87.0893 37.6572 87.4565 38.5687 88.0848C39.4802 88.7131 40.2041 89.5787 40.6626 90.5887L41.8539 93.9225Z" fill="#D98982"/>
<path d="M98.1316 94.2075C94.0314 98.8904 88.2609 101.767 82.066 102.216C75.871 102.666 69.7485 100.652 65.02 96.6095L67.05 90.924C67.5087 89.9142 68.2327 89.0487 69.1441 88.4205C70.0556 87.7922 71.1203 87.4248 72.224 87.3577L73.5154 87.2782L76.5948 84.6124C76.5948 84.6124 84.892 84.315 84.7689 84.1726L89.7948 87.207L89.7906 87.186L91.7663 87.3075C92.8701 87.3743 93.9349 87.7416 94.8464 88.3698C95.758 88.9981 96.4818 89.8637 96.9403 90.8737L98.1316 94.2075Z" fill="#D98982"/>
<path d="M156.548 94.2075C152.448 98.8904 146.677 101.767 140.482 102.216C134.287 102.666 128.165 100.652 123.436 96.6095L125.466 90.924C125.925 89.9142 126.649 89.0487 127.56 88.4205C128.472 87.7922 129.537 87.4248 130.64 87.3577L131.932 87.2782L135.011 84.6124C135.011 84.6124 143.308 84.315 143.185 84.1726L148.211 87.207L148.207 87.186L150.183 87.3075C151.286 87.3743 152.351 87.7416 153.263 88.3698C154.174 88.9981 154.898 89.8637 155.357 90.8737L156.548 94.2075Z" fill="#D98982"/>
<path d="M41.8539 39.4759C37.7537 44.1587 31.9832 47.0354 25.7883 47.4848C19.5933 47.9341 13.4708 45.9202 8.74231 41.8778L10.7723 36.1923C11.231 35.1825 11.9549 34.317 12.8664 33.6888C13.7779 33.0605 14.8426 32.6932 15.9463 32.626L17.2377 32.5465L20.3171 29.8807C20.3171 29.8807 28.6143 29.5833 28.4912 29.4409L33.5171 32.4753L33.5129 32.4543L35.4886 32.5758C36.5924 32.6426 37.6572 33.0099 38.5687 33.6382C39.4802 34.2665 40.2041 35.1321 40.6626 36.142L41.8539 39.4759Z" fill="#D98982"/>
<path d="M97.923 39.5514C93.8228 44.2343 88.0523 47.1109 81.8574 47.5603C75.6624 48.0097 69.5398 45.9958 64.8114 41.9533L66.8414 36.2679C67.3001 35.258 68.024 34.3926 68.9355 33.7643C69.847 33.1361 70.9117 32.7687 72.0154 32.7016L73.3068 32.622L76.3862 29.9562C76.3862 29.9562 84.6834 29.6589 84.5603 29.5165L89.5861 32.5508L89.582 32.5299L91.5577 32.6514C92.6615 32.7182 93.7263 33.0854 94.6378 33.7137C95.5493 34.342 96.2732 35.2076 96.7317 36.2176L97.923 39.5514Z" fill="#D98982"/>
<path d="M156.339 39.5514C152.239 44.2343 146.469 47.1109 140.274 47.5603C134.079 48.0097 127.956 45.9958 123.228 41.9533L125.258 36.2679C125.716 35.258 126.44 34.3926 127.352 33.7643C128.263 33.1361 129.328 32.7687 130.432 32.7016L131.723 32.622L134.802 29.9562C134.802 29.9562 143.1 29.6589 142.977 29.5165L148.002 32.5508L147.998 32.5299L149.974 32.6514C151.078 32.7182 152.143 33.0854 153.054 33.7137C153.966 34.342 154.689 35.2076 155.148 36.2176L156.339 39.5514Z" fill="#D98982"/>
<path d="M146.107 68.9702C145.469 66.6767 144.018 64.6959 142.028 63.3996C140.442 62.3814 138.463 61.8615 136.666 62.4C134.869 62.9385 133.381 64.7085 133.499 66.6209C132.85 66.3994 132.113 66.6941 131.638 67.1977C131.163 67.7013 130.908 68.3787 130.725 69.053C130.149 71.1971 130.187 73.4611 130.835 75.5844L130.8 75.8892C131.676 75.7436 132.341 74.9886 132.755 74.1842C133.168 73.3799 133.406 72.4875 133.854 71.7028C134.303 70.918 135.047 70.2181 135.935 70.1936L135.856 71.5557C136.62 71.1607 137.384 70.7657 138.148 70.3707C137.966 70.8069 137.784 71.2432 137.603 71.6794C138.27 71.3995 138.937 71.1197 139.604 70.8399C139.529 71.2593 139.455 71.6788 139.38 72.0983C140.042 70.5869 142.088 69.9229 143.479 70.768C144.288 71.2587 144.818 72.1333 145.097 73.0518C145.376 73.9703 145.431 74.9419 145.484 75.9022C146.515 73.7417 146.736 71.2809 146.107 68.9702Z" fill="#2F2E41"/>
<path d="M74.7321 134.834C74.7179 134.794 74.705 134.754 74.6909 134.715C74.6631 134.739 74.6365 134.765 74.6063 134.787L74.7321 134.834Z" fill="#2F2E41"/>
<path d="M89.856 128.938C89.8192 128.207 89.6284 127.491 89.2961 126.84C88.9639 126.188 88.4977 125.614 87.9285 125.156C87.51 124.824 87.026 124.544 86.749 124.086C86.591 123.762 86.457 123.427 86.3483 123.083C85.7971 121.766 84.2262 121.066 82.8172 121.266C81.4081 121.465 80.1886 122.416 79.3673 123.583C78.9626 123.388 78.5108 123.314 78.0654 123.369C77.62 123.424 77.1997 123.606 76.8541 123.894C76.5086 124.181 76.2524 124.562 76.1159 124.991C75.9793 125.42 75.9681 125.879 76.0835 126.315C75.3538 125.725 74.1735 126.197 73.718 127.019C73.2625 127.84 73.3348 128.846 73.4702 129.777C73.7156 131.459 74.1242 133.113 74.6904 134.715C75.4009 134.087 75.3573 132.943 75.2704 131.976C75.1802 130.972 75.2343 129.746 76.1093 129.25C76.9546 128.771 77.9807 129.297 78.9128 129.569C79.6498 129.778 80.4233 129.825 81.1799 129.706C81.9366 129.586 82.6584 129.303 83.2957 128.877C83.7813 128.547 84.2136 128.134 84.737 127.869C85.2604 127.604 85.9265 127.512 86.4139 127.839C86.8589 128.138 87.0399 128.695 87.1913 129.211C87.5502 130.432 87.9091 131.654 88.268 132.875C88.7948 132.369 89.2088 131.756 89.4825 131.077C89.7562 130.399 89.8835 129.67 89.856 128.938Z" fill="#2F2E41"/>
<path d="M33.2733 69.1177C33.3324 68.4859 33.3595 67.8514 33.3545 67.2169C33.3889 65.9618 33.1599 64.7136 32.6821 63.5532C32.0946 62.2685 31.047 61.2526 29.7475 60.7076C28.4595 60.1861 27.02 60.1874 25.7329 60.7111C24.5708 59.9741 23.2797 59.3899 21.9199 59.3176C20.5602 59.2452 19.1225 59.7516 18.2845 60.8662C18.0974 61.1604 17.8849 61.4375 17.6494 61.6944C16.9758 62.3205 15.9522 62.2302 15.0569 62.1022C15.4584 62.4476 15.8601 62.7931 16.2619 63.1385C15.7758 63.266 15.2897 63.3935 14.8035 63.5209C15.3708 63.8662 15.938 64.2116 16.5052 64.5569C14.8584 65.549 14.1099 67.7145 14.3077 69.6812C14.4947 71.5432 15.3903 73.2459 16.4609 74.7593C16.888 73.8546 16.796 72.7722 16.7889 71.7533C16.785 71.4228 16.8051 71.0925 16.849 70.7649C20.4672 71.6355 24.2478 72.1942 28.0817 70.8116L28.8511 68.9215C28.9591 68.9326 29.0671 68.9431 29.175 68.9546L29.6208 70.8133C30.6314 71.2279 31.6441 71.5903 32.6572 71.2095C32.7065 71.4966 32.7362 71.7896 32.759 72.0712C32.8459 71.7344 32.9214 71.395 32.9894 71.0543C33.1233 70.9822 33.2515 70.9 33.373 70.8084C33.3974 70.2429 33.364 69.6764 33.2733 69.1177Z" fill="#2F2E41"/>
</g>
<defs>
<clipPath id="clip0_411_1708">
<rect width="161.963" height="160" fill="white" transform="translate(0.496216)"/>
</clipPath>
</defs>
</svg>
