<svg width="48" height="48" viewBox="0 0 48 48" fill="none" xmlns="http://www.w3.org/2000/svg">
<circle cx="24" cy="24" r="23.5" fill="white" stroke="#58453F"/>
<path d="M24.24 31.16C23.2533 31.16 22.2933 31.0067 21.36 30.7C20.44 30.3933 19.6867 29.98 19.1 29.46L20.02 27.88C20.4867 28.32 21.0933 28.68 21.84 28.96C22.5867 29.24 23.3867 29.38 24.24 29.38C25.28 29.38 26.0867 29.16 26.66 28.72C27.2467 28.2667 27.54 27.66 27.54 26.9C27.54 26.1667 27.26 25.58 26.7 25.14C26.1533 24.6867 25.28 24.46 24.08 24.46H22.96V23.06L27.12 17.94L27.4 18.74H19.74V17H28.98V18.36L24.84 23.46L23.8 22.84H24.46C26.1533 22.84 27.42 23.22 28.26 23.98C29.1133 24.74 29.54 25.7067 29.54 26.88C29.54 27.6667 29.3467 28.3867 28.96 29.04C28.5733 29.6933 27.9867 30.2133 27.2 30.6C26.4267 30.9733 25.44 31.16 24.24 31.16Z" fill="#58453F"/>
</svg>
